<svg width="100%" height="100%" viewBox="0 0 120 155" fill="none" xmlns="http://www.w3.org/2000/svg">
  <path fill-rule="evenodd" clip-rule="evenodd" d="M60 110.63A50.63 50.63 0 1060 9.36a50.63 50.63 0 000 101.25zM29.62 34.69a5.06 5.06 0 100-10.13 5.06 5.06 0 000 10.13zm20.25 0a5.06 5.06 0 100-10.13 5.06 5.06 0 000 10.13zm20.25 0a5.06 5.06 0 100-10.13 5.06 5.06 0 000 10.13zM50.38 70.13a3.04 3.04 0 11-6.07 0 3.04 3.04 0 016.07 0zm12.15 0a3.04 3.04 0 11-6.07 0 3.04 3.04 0 016.07 0zm12.15 0a3.04 3.04 0 11-6.07 0 3.04 3.04 0 016.07 0z" fill="var(--color-primary-text)" fill-opacity=".35"/>
  <g filter="url(#filter0_d)" fill-rule="evenodd" clip-rule="evenodd" fill="var(--color-primary-text)">
    <path d="M9.38 15.45v95.17l20.24-60.75H84.3a6.08 6.08 0 006.08-6.07V15.45a6.08 6.08 0 00-6.08-6.07H15.45a6.08 6.08 0 00-6.07 6.07zm20.24 19.24a5.06 5.06 0 100-10.13 5.06 5.06 0 000 10.13zm20.25 0a5.06 5.06 0 100-10.13 5.06 5.06 0 000 10.13zm20.25 0a5.06 5.06 0 100-10.13 5.06 5.06 0 000 10.13z"/>
    <path d="M38.6 63.47A5.06 5.06 0 0143.4 60h30.77a6.08 6.08 0 016.08 6.08V74c0 3.34-2.7 6.06-6.03 6.08l-24.34.16-26.94 30.38L38.6 63.47zm11.78 6.66a3.04 3.04 0 11-6.07 0 3.04 3.04 0 016.07 0zm12.15 0a3.04 3.04 0 11-6.07 0 3.04 3.04 0 016.07 0zm12.15 0a3.04 3.04 0 11-6.07 0 3.04 3.04 0 016.07 0z"/>
  </g>
  <path d="M34.68 29.62a5.06 5.06 0 11-10.12 0 5.06 5.06 0 0110.12 0zM54.93 29.62a5.06 5.06 0 11-10.12 0 5.06 5.06 0 0110.12 0zM70.12 34.69a5.06 5.06 0 100-10.13 5.06 5.06 0 000 10.13zM50.38 70.13a3.04 3.04 0 11-6.07 0 3.04 3.04 0 016.07 0zM62.53 70.13a3.04 3.04 0 11-6.07 0 3.04 3.04 0 016.07 0zM71.64 73.16a3.04 3.04 0 100-6.07 3.04 3.04 0 000 6.07z" fill="var(--color-primary-text)" fill-opacity=".7"/>
  <path d="M30.61 132.39v-1.07h.8v-5.45h-.8v-1.05h2.06v.56c.43-.46.96-.7 1.6-.7.7 0 1.26.25 1.67.74.42.48.63 1.14.63 1.95 0 .84-.22 1.51-.66 2.02-.44.5-1.04.74-1.78.74-.52 0-.98-.13-1.37-.4v1.59h.95v1.07h-3.1zm3.26-6.67c-.41 0-.78.14-1.1.44v2.62c.26.21.6.32 1 .32.46 0 .81-.15 1.04-.44.24-.3.36-.71.36-1.24 0-.5-.1-.9-.32-1.22-.22-.32-.54-.48-.98-.48zM42 129.39c-.48.5-1.15.74-2 .74a2.7 2.7 0 01-2.02-.74 2.73 2.73 0 01-.72-1.98c0-.83.24-1.49.72-1.98a2.7 2.7 0 012.02-.75c.85 0 1.52.25 2 .75.49.5.73 1.15.73 1.98a2.7 2.7 0 01-.73 1.98zm-3-.75c.22.32.56.47 1 .47.44 0 .77-.15 1-.47.22-.32.33-.73.33-1.23s-.11-.91-.34-1.23a1.14 1.14 0 00-1-.48c-.43 0-.77.16-.99.48-.22.32-.34.72-.34 1.23 0 .5.12.91.34 1.23zM45.1 130l-1.41-4.16h-.62v-1.02h2.65v1.02h-.78l.77 2.58 1.14-3.6h1.17l1.15 3.6.76-2.58h-.78v-1.02h2.58v1.02h-.68l-1.3 4.16h-1.18l-1.18-3.36-1.1 3.36h-1.2zM54.8 130.13c-.88 0-1.56-.25-2.03-.74a2.8 2.8 0 01-.7-1.98c0-.81.23-1.47.67-1.97.45-.5 1.08-.76 1.88-.76.77 0 1.36.24 1.76.72.4.48.61 1.1.61 1.86 0 .22-.01.41-.05.58h-3.5c.14.84.66 1.26 1.56 1.26.5 0 1.06-.16 1.67-.48v1.04c-.56.32-1.19.47-1.87.47zm-.16-4.46c-.69 0-1.1.4-1.21 1.22h2.3c-.07-.81-.43-1.22-1.09-1.22zM57.69 130v-1.06h.79v-3.07h-.8v-1.05h2.1v.94c.4-.72.96-1.08 1.72-1.08h.11v1.37h-.21c-.68 0-1.2.11-1.56.34v2.55h.9V130h-3.05zM64.8 130.13c-.88 0-1.55-.25-2.02-.74a2.8 2.8 0 01-.7-1.98c0-.81.22-1.47.67-1.97.45-.5 1.07-.76 1.87-.76.78 0 1.37.24 1.77.72.4.48.61 1.1.61 1.86 0 .22-.02.41-.05.58h-3.5c.13.84.65 1.26 1.56 1.26.5 0 1.06-.16 1.67-.48v1.04c-.56.32-1.19.47-1.88.47zm-.15-4.46c-.69 0-1.1.4-1.21 1.22h2.29c-.07-.81-.43-1.22-1.08-1.22zM69.96 130.13a2.1 2.1 0 01-1.68-.74 2.97 2.97 0 01-.63-1.98c0-.83.22-1.5.66-1.98.44-.5 1.04-.75 1.77-.75.52 0 .98.14 1.37.41v-2.5h-.98v-1.07h2.34v7.42h.79V130h-2.03v-.58c-.44.48-.98.71-1.6.71zm.39-1.03c.4 0 .77-.14 1.1-.43v-2.63c-.3-.22-.63-.32-1-.32-.47 0-.82.14-1.06.44-.24.3-.35.7-.35 1.22 0 .5.1.91.32 1.24.22.32.55.48.99.48zM78.96 130.13c-.64 0-1.27-.06-1.9-.19v-7.37h-.79v-1.05h2.15v3.52c.43-.24.89-.36 1.4-.36.72 0 1.29.24 1.69.7.4.46.6 1.1.6 1.92 0 .94-.27 1.65-.82 2.12-.54.48-1.32.71-2.33.71zm-.06-1.02c1.23 0 1.84-.6 1.84-1.8 0-.47-.1-.86-.3-1.16-.2-.3-.52-.46-.96-.46-.35 0-.7.1-1.06.29v3.1l.48.03zM84.44 132.52c-.53 0-1.02-.13-1.45-.4l.39-.9c.33.18.62.27.87.27.41 0 .68-.2.8-.6l.28-.89h-1l-1.2-4.14h-.6v-1.04h2.7v1.05h-.7l.96 3.65 1.17-3.65h-.7v-1.05h2.61v1.04h-.59l-1.74 5.2c-.16.48-.38.85-.67 1.09-.29.25-.66.37-1.13.37zM16.42 154.29c-1.41 0-3.14-.27-5.19-.8v-3.64h2.5v1.92c.91.2 1.75.31 2.52.31 2.02 0 3.02-.6 3.02-1.82 0-.61-.27-1.1-.81-1.47a6.22 6.22 0 00-1.95-.86c-.76-.23-1.54-.48-2.32-.77a4.82 4.82 0 01-1.97-1.37 3.72 3.72 0 01-.8-2.45c0-1.44.52-2.5 1.54-3.19a6.87 6.87 0 013.94-1.05c1.55 0 3.1.26 4.65.79v3.57h-2.54v-1.96c-.85-.13-1.53-.2-2.04-.2-.82 0-1.5.14-2.04.41a1.4 1.4 0 00-.82 1.35c0 .41.15.77.44 1.08.28.28.66.52 1.12.72.47.17.97.35 1.52.52.56.16 1.12.36 1.68.58.56.22 1.07.5 1.53.82.47.32.84.76 1.13 1.32.29.56.43 1.21.43 1.96 0 1.5-.52 2.57-1.56 3.24a7.28 7.28 0 01-3.98.99zM34.11 154v-2.2h2.16v-10.2h-2.73v2.22h-2.52v-4.44h13.3v4.44h-2.53v-2.23h-2.73v10.2h2.16V154h-7.1zM53.38 154v-2.2h1.97v-10.2h-1.97v-2.22h12.05v4.3h-2.57v-2.09h-4.73v3.96h5.5v2.21h-5.5v4.03h4.8v-2.18h2.6V154H53.38zM75.17 154v-2.2h1.97v-10.2h-1.97v-2.22H82c2.01 0 3.5.47 4.49 1.4.99.92 1.48 2.04 1.48 3.36 0 1.3-.5 2.43-1.48 3.36-.98.92-2.48 1.39-4.5 1.39h-2.06v2.9h2.45V154h-7.2zm4.75-12.4v5.08h2.16c1.08 0 1.85-.24 2.33-.72.5-.5.75-1.1.75-1.82a2.4 2.4 0 00-.75-1.8c-.48-.5-1.25-.75-2.33-.75h-2.16zM102.29 154.29c-1.41 0-3.14-.27-5.19-.8v-3.64h2.5v1.92c.91.2 1.75.31 2.52.31 2.01 0 3.02-.6 3.02-1.82 0-.61-.27-1.1-.81-1.47a6.22 6.22 0 00-1.95-.86c-.77-.23-1.54-.48-2.33-.77a4.82 4.82 0 01-1.96-1.37 3.72 3.72 0 01-.8-2.45c0-1.44.52-2.5 1.54-3.19a6.87 6.87 0 013.94-1.05c1.55 0 3.1.26 4.65.79v3.57h-2.54v-1.96c-.85-.13-1.53-.2-2.04-.2-.82 0-1.5.14-2.04.41a1.4 1.4 0 00-.82 1.35c0 .41.15.77.43 1.08.3.28.67.52 1.13.72.47.17.97.35 1.51.52.56.16 1.12.36 1.68.58.56.22 1.08.5 1.54.82.46.32.84.76 1.13 1.32.29.56.43 1.21.43 1.96 0 1.5-.52 2.57-1.56 3.24a7.28 7.28 0 01-3.98.99z" fill="var(--color-primary-text)"/>
  <defs>
    <filter id="filter0_d" x="6.38" y="9.38" width="87" height="107.25" filterUnits="userSpaceOnUse" color-interpolation-filters="sRGB">
      <feFlood flood-opacity="0" result="BackgroundImageFix"/>
      <feColorMatrix in="SourceAlpha" values="0 0 0 0 0 0 0 0 0 0 0 0 0 0 0 0 0 0 127 0"/>
      <feOffset dy="3"/>
      <feGaussianBlur stdDeviation="1.5"/>
      <feColorMatrix values="0 0 0 0 0 0 0 0 0 0 0 0 0 0 0 0 0 0 0.25 0"/>
      <feBlend in2="BackgroundImageFix" result="effect1_dropShadow"/>
      <feBlend in="SourceGraphic" in2="effect1_dropShadow" result="shape"/>
    </filter>
  </defs>
</svg>
