<svg viewBox="0 0 414 262" fill="none" xmlns="http://www.w3.org/2000/svg">
  <path
    d="M7.92 10C5.03 5.95 0 0 0 0h414v250.31s-4.7 2.02-7.77 3.14c-4.7 1.7-7.4 2.46-12.24 3.73h-.02c-3.47.92-5.42 1.43-8.94 2.1-3.7.69-5.81.96-9.56 1.34-4.01.4-6.28.6-10.3.6-3.98 0-6.23-.08-10.16-.6-3.78-.5-5.9-.91-9.56-1.94a56.5 56.5 0 01-9.71-3.59 50.41 50.41 0 01-7.47-4.03 51.39 51.39 0 01-8.66-7.02 70.92 70.92 0 01-6.42-7.02c-2.75-3.3-3.92-5.44-6.57-8.81-3.53-4.5-5.4-7.14-9.41-11.2-4-4.07-6.4-6.27-11.05-9.56a58.69 58.69 0 00-10.3-6.13 50.03 50.03 0 00-10.61-3.88c-4.57-1.15-7.26-1.23-11.95-1.64-3.6-.31-5.64-.44-9.26-.45-3.85-.01-6.01.2-9.86.45-6.08.4-9.48.79-15.53 1.5-5.61.65-8.73 1.21-14.34 1.93-6.81.88-10.63 1.4-17.47 2.1-6.82.7-10.64 1.14-17.48 1.49-6.64.34-10.38.49-17.02.3-5.85-.17-9.14-.32-14.94-1.05a104.6 104.6 0 01-15.38-2.84 101.59 101.59 0 01-17.18-5.97 108.47 108.47 0 01-16.87-8.81c-8.93-5.56-13.5-9.43-21.21-16.58-4.99-4.63-7.77-7.3-12.1-12.55a100.68 100.68 0 01-8.96-12.54 101.8 101.8 0 01-6.72-12.25c-2.51-5.33-3.7-8.44-5.53-14.04-1.76-5.39-2.5-8.5-3.73-14.03a163.16 163.16 0 01-2.69-15.39c-.78-5.7-.94-8.92-1.5-14.63-.48-5.02-.68-7.84-1.19-12.85-.59-5.9-.61-9.25-1.64-15.08-.5-2.82-.8-4.4-1.5-7.17l-.03-.17a61.13 61.13 0 00-2.35-7.9c-1.77-4.71-3.27-7.16-5.83-11.5a94.27 94.27 0 00-5.07-7.76z"
    fill="var(--color-feedbax-secondary)"
  />
</svg>
