<svg width="120" height="155" viewBox="0 0 120 155" fill="none" xmlns="http://www.w3.org/2000/svg">
<path fill-rule="evenodd" clip-rule="evenodd" d="M60 110.625C87.9594 110.625 110.625 87.9594 110.625 60C110.625 32.0406 87.9594 9.375 60 9.375C32.0406 9.375 9.375 32.0406 9.375 60C9.375 87.9594 32.0406 110.625 60 110.625ZM29.6199 34.6875C32.4159 34.6875 34.6824 32.421 34.6824 29.625C34.6824 26.829 32.4159 24.5625 29.6199 24.5625C26.8241 24.5625 24.5574 26.829 24.5574 29.625C24.5574 32.421 26.8241 34.6875 29.6199 34.6875ZM49.8699 34.6875C52.6659 34.6875 54.9324 32.421 54.9324 29.625C54.9324 26.829 52.6659 24.5625 49.8699 24.5625C47.0741 24.5625 44.8074 26.829 44.8074 29.625C44.8074 32.421 47.0741 34.6875 49.8699 34.6875ZM70.1199 34.6875C72.9159 34.6875 75.1824 32.421 75.1824 29.625C75.1824 26.829 72.9159 24.5625 70.1199 24.5625C67.3241 24.5625 65.0574 26.829 65.0574 29.625C65.0574 32.421 67.3241 34.6875 70.1199 34.6875ZM50.3813 70.125C50.3813 71.8026 49.0213 73.1625 47.3438 73.1625C45.6662 73.1625 44.3062 71.8026 44.3062 70.125C44.3062 68.4474 45.6662 67.0875 47.3438 67.0875C49.0213 67.0875 50.3813 68.4474 50.3813 70.125ZM62.5312 70.125C62.5312 71.8026 61.1713 73.1625 59.4937 73.1625C57.8162 73.1625 56.4563 71.8026 56.4563 70.125C56.4563 68.4474 57.8162 67.0875 59.4937 67.0875C61.1713 67.0875 62.5312 68.4474 62.5312 70.125ZM74.6813 70.125C74.6813 71.8026 73.3213 73.1625 71.6437 73.1625C69.9662 73.1625 68.6063 71.8026 68.6063 70.125C68.6063 68.4474 69.9662 67.0875 71.6437 67.0875C73.3213 67.0875 74.6813 68.4474 74.6813 70.125Z" fill="white" fill-opacity="0.35"/>
<g filter="url(#filter0_d)">
<path fill-rule="evenodd" clip-rule="evenodd" d="M9.375 15.45V110.625L29.625 49.875H84.3C87.6551 49.875 90.375 47.1551 90.375 43.8V15.45C90.375 12.0949 87.6551 9.375 84.3 9.375H15.45C12.0949 9.375 9.375 12.0949 9.375 15.45ZM29.6199 34.6875C32.4159 34.6875 34.6824 32.421 34.6824 29.625C34.6824 26.829 32.4159 24.5625 29.6199 24.5625C26.8241 24.5625 24.5574 26.829 24.5574 29.625C24.5574 32.421 26.8241 34.6875 29.6199 34.6875ZM49.8699 34.6875C52.6659 34.6875 54.9324 32.421 54.9324 29.625C54.9324 26.829 52.6659 24.5625 49.8699 24.5625C47.0741 24.5625 44.8074 26.829 44.8074 29.625C44.8074 32.421 47.0741 34.6875 49.8699 34.6875ZM70.1199 34.6875C72.9159 34.6875 75.1824 32.421 75.1824 29.625C75.1824 26.829 72.9159 24.5625 70.1199 24.5625C67.3241 24.5625 65.0574 26.829 65.0574 29.625C65.0574 32.421 67.3241 34.6875 70.1199 34.6875Z" fill="white"/>
<path fill-rule="evenodd" clip-rule="evenodd" d="M38.5988 63.4674C39.2861 61.3973 41.2223 60 43.4034 60H74.175C77.5301 60 80.25 62.7199 80.25 66.075V74.0128C80.25 77.3522 77.5547 80.0655 74.2155 80.0878L49.875 80.25L22.9425 110.625L38.5988 63.4674ZM50.3813 70.125C50.3813 71.8026 49.0213 73.1625 47.3438 73.1625C45.6662 73.1625 44.3063 71.8026 44.3063 70.125C44.3063 68.4474 45.6662 67.0875 47.3438 67.0875C49.0213 67.0875 50.3813 68.4474 50.3813 70.125ZM62.5312 70.125C62.5312 71.8026 61.1713 73.1625 59.4938 73.1625C57.8162 73.1625 56.4563 71.8026 56.4563 70.125C56.4563 68.4474 57.8162 67.0875 59.4938 67.0875C61.1713 67.0875 62.5312 68.4474 62.5312 70.125ZM74.6813 70.125C74.6813 71.8026 73.3213 73.1625 71.6437 73.1625C69.9662 73.1625 68.6063 71.8026 68.6063 70.125C68.6063 68.4474 69.9662 67.0875 71.6437 67.0875C73.3213 67.0875 74.6813 68.4474 74.6813 70.125Z" fill="white"/>
</g>
<path d="M34.6824 29.6248C34.6824 32.4206 32.4159 34.6873 29.6199 34.6873C26.8241 34.6873 24.5574 32.4206 24.5574 29.6248C24.5574 26.8288 26.8241 24.5623 29.6199 24.5623C32.4159 24.5623 34.6824 26.8288 34.6824 29.6248Z" fill="white" fill-opacity="0.7"/>
<path d="M54.9324 29.6248C54.9324 32.4206 52.6659 34.6873 49.8699 34.6873C47.0741 34.6873 44.8074 32.4206 44.8074 29.6248C44.8074 26.8288 47.0741 24.5623 49.8699 24.5623C52.6659 24.5623 54.9324 26.8288 54.9324 29.6248Z" fill="white" fill-opacity="0.7"/>
<path d="M70.1199 34.6873C72.916 34.6873 75.1825 32.4206 75.1825 29.6248C75.1825 26.8288 72.916 24.5623 70.1199 24.5623C67.3241 24.5623 65.0574 26.8288 65.0574 29.6248C65.0574 32.4206 67.3241 34.6873 70.1199 34.6873Z" fill="white" fill-opacity="0.7"/>
<path d="M50.3813 70.1255C50.3813 71.8031 49.0213 73.163 47.3438 73.163C45.6662 73.163 44.3063 71.8031 44.3063 70.1255C44.3063 68.448 45.6662 67.088 47.3438 67.088C49.0213 67.088 50.3813 68.448 50.3813 70.1255Z" fill="white" fill-opacity="0.7"/>
<path d="M62.5312 70.1255C62.5312 71.8031 61.1713 73.163 59.4937 73.163C57.8162 73.163 56.4562 71.8031 56.4562 70.1255C56.4562 68.448 57.8162 67.088 59.4937 67.088C61.1713 67.088 62.5312 68.448 62.5312 70.1255Z" fill="white" fill-opacity="0.7"/>
<path d="M71.6437 73.163C73.3213 73.163 74.6812 71.8031 74.6812 70.1255C74.6812 68.448 73.3213 67.088 71.6437 67.088C69.9662 67.088 68.6063 68.448 68.6063 70.1255C68.6063 71.8031 69.9662 73.163 71.6437 73.163Z" fill="white" fill-opacity="0.7"/>
<path d="M30.6131 132.388V131.32H31.4051V125.872H30.6131V124.816H32.6651V125.38C33.0971 124.916 33.6291 124.684 34.2611 124.684C34.9651 124.684 35.5251 124.928 35.9411 125.416C36.3571 125.904 36.5651 126.556 36.5651 127.372C36.5651 128.212 36.3451 128.884 35.9051 129.388C35.4651 129.884 34.8731 130.132 34.1291 130.132C33.6091 130.132 33.1531 129.996 32.7611 129.724V131.32H33.7091V132.388H30.6131ZM33.8651 125.716C33.4571 125.716 33.0891 125.864 32.7611 126.16V128.776C33.0251 128.992 33.3611 129.1 33.7691 129.1C34.2331 129.1 34.5811 128.952 34.8131 128.656C35.0531 128.36 35.1731 127.948 35.1731 127.42C35.1731 126.924 35.0651 126.516 34.8491 126.196C34.6331 125.876 34.3051 125.716 33.8651 125.716Z" fill="white"/>
<path d="M42.0001 129.388C41.5201 129.884 40.8521 130.132 39.9961 130.132C39.1401 130.132 38.4681 129.884 37.9801 129.388C37.5001 128.892 37.2601 128.232 37.2601 127.408C37.2601 126.584 37.5001 125.924 37.9801 125.428C38.4681 124.932 39.1401 124.684 39.9961 124.684C40.8521 124.684 41.5201 124.932 42.0001 125.428C42.4881 125.924 42.7321 126.584 42.7321 127.408C42.7321 128.232 42.4881 128.892 42.0001 129.388ZM39.0001 128.644C39.2241 128.956 39.5561 129.112 39.9961 129.112C40.4361 129.112 40.7681 128.956 40.9921 128.644C41.2161 128.324 41.3281 127.912 41.3281 127.408C41.3281 126.904 41.2161 126.496 40.9921 126.184C40.7681 125.864 40.4361 125.704 39.9961 125.704C39.5561 125.704 39.2241 125.864 39.0001 126.184C38.7761 126.496 38.6641 126.904 38.6641 127.408C38.6641 127.912 38.7761 128.324 39.0001 128.644Z" fill="white"/>
<path d="M45.0944 130L43.6904 125.836H43.0664V124.816H45.7184V125.836H44.9384L45.7064 128.416L46.8464 124.816H48.0224L49.1744 128.428L49.9304 125.836H49.1504V124.816H51.7304V125.836H51.0464L49.7504 130H48.5744L47.3864 126.64L46.2824 130H45.0944Z" fill="white"/>
<path d="M54.7966 130.132C53.9166 130.132 53.2406 129.884 52.7686 129.388C52.3046 128.884 52.0726 128.224 52.0726 127.408C52.0726 126.6 52.2966 125.944 52.7446 125.44C53.1926 124.936 53.8166 124.684 54.6166 124.684C55.3926 124.684 55.9806 124.924 56.3806 125.404C56.7886 125.884 56.9926 126.504 56.9926 127.264C56.9926 127.48 56.9766 127.672 56.9446 127.84H53.4406C53.5766 128.68 54.0966 129.1 55.0006 129.1C55.5046 129.1 56.0606 128.94 56.6686 128.62V129.664C56.1086 129.976 55.4846 130.132 54.7966 130.132ZM54.6406 125.668C53.9526 125.668 53.5486 126.076 53.4286 126.892H55.7206C55.6566 126.076 55.2966 125.668 54.6406 125.668Z" fill="white"/>
<path d="M57.687 130V128.944H58.479V125.872H57.687V124.816H59.787V125.764C60.171 125.044 60.743 124.684 61.503 124.684H61.611V126.052H61.395C60.715 126.052 60.195 126.164 59.835 126.388V128.944H60.735V130H57.687Z" fill="white"/>
<path d="M64.8044 130.132C63.9244 130.132 63.2484 129.884 62.7764 129.388C62.3124 128.884 62.0804 128.224 62.0804 127.408C62.0804 126.6 62.3044 125.944 62.7524 125.44C63.2004 124.936 63.8244 124.684 64.6244 124.684C65.4004 124.684 65.9884 124.924 66.3884 125.404C66.7964 125.884 67.0004 126.504 67.0004 127.264C67.0004 127.48 66.9844 127.672 66.9524 127.84H63.4484C63.5844 128.68 64.1044 129.1 65.0084 129.1C65.5124 129.1 66.0684 128.94 66.6764 128.62V129.664C66.1164 129.976 65.4924 130.132 64.8044 130.132ZM64.6484 125.668C63.9604 125.668 63.5564 126.076 63.4364 126.892H65.7284C65.6644 126.076 65.3044 125.668 64.6484 125.668Z" fill="white"/>
<path d="M69.9628 130.132C69.2668 130.132 68.7068 129.884 68.2828 129.388C67.8588 128.884 67.6468 128.224 67.6468 127.408C67.6468 126.576 67.8668 125.916 68.3068 125.428C68.7548 124.932 69.3468 124.684 70.0828 124.684C70.6028 124.684 71.0588 124.82 71.4508 125.092V122.584H70.4668V121.516H72.8068V128.944H73.5988V130H71.5708V129.424C71.1308 129.896 70.5948 130.132 69.9628 130.132ZM70.3468 129.1C70.7548 129.1 71.1228 128.956 71.4508 128.668V126.04C71.1548 125.824 70.8188 125.716 70.4428 125.716C69.9788 125.716 69.6268 125.864 69.3868 126.16C69.1548 126.456 69.0388 126.864 69.0388 127.384C69.0388 127.88 69.1468 128.292 69.3628 128.62C69.5788 128.94 69.9068 129.1 70.3468 129.1Z" fill="white"/>
<path d="M78.962 130.132C78.322 130.132 77.69 130.068 77.066 129.94V122.572H76.274V121.516H78.422V125.044C78.846 124.804 79.31 124.684 79.814 124.684C80.542 124.684 81.106 124.916 81.506 125.38C81.914 125.844 82.118 126.484 82.118 127.3C82.118 128.244 81.842 128.952 81.29 129.424C80.746 129.896 79.97 130.132 78.962 130.132ZM78.902 129.112C80.126 129.112 80.738 128.512 80.738 127.312C80.738 126.84 80.638 126.452 80.438 126.148C80.238 125.844 79.918 125.692 79.478 125.692C79.134 125.692 78.782 125.788 78.422 125.98V129.088C78.614 129.104 78.774 129.112 78.902 129.112Z" fill="white"/>
<path d="M84.4443 132.52C83.9083 132.52 83.4243 132.388 82.9923 132.124L83.3763 131.224C83.7123 131.4 84.0043 131.488 84.2523 131.488C84.6603 131.488 84.9283 131.288 85.0563 130.888L85.3323 130H84.3363L83.1363 125.86H82.5243V124.816H85.2243V125.872H84.5283L85.4883 129.52L86.6643 125.872H85.9563V124.816H88.5723V125.86H87.9843L86.2443 131.056C86.0843 131.544 85.8603 131.908 85.5723 132.148C85.2843 132.396 84.9083 132.52 84.4443 132.52Z" fill="white"/>
<path d="M16.4179 154.288C15.0099 154.288 13.2819 154.024 11.2339 153.496V149.848H13.7299V151.768C14.6419 151.976 15.4819 152.08 16.2499 152.08C18.2659 152.08 19.2739 151.472 19.2739 150.256C19.2739 149.648 19.0019 149.16 18.4579 148.792C17.9299 148.424 17.2819 148.136 16.5139 147.928C15.7459 147.704 14.9699 147.448 14.1859 147.16C13.4179 146.872 12.7619 146.416 12.2179 145.792C11.6899 145.152 11.4259 144.336 11.4259 143.344C11.4259 141.904 11.9379 140.84 12.9619 140.152C14.0019 139.448 15.3139 139.096 16.8979 139.096C18.4499 139.096 20.0019 139.36 21.5539 139.888V143.464H19.0099V141.496C18.1619 141.368 17.4819 141.304 16.9699 141.304C16.1539 141.304 15.4739 141.44 14.9299 141.712C14.3859 141.984 14.1139 142.432 14.1139 143.056C14.1139 143.472 14.2579 143.832 14.5459 144.136C14.8339 144.424 15.2099 144.664 15.6739 144.856C16.1379 145.032 16.6419 145.208 17.1859 145.384C17.7459 145.544 18.3059 145.736 18.8659 145.96C19.4259 146.184 19.9379 146.456 20.4019 146.776C20.8659 147.096 21.2419 147.536 21.5299 148.096C21.8179 148.656 21.9619 149.312 21.9619 150.064C21.9619 151.552 21.4419 152.632 20.4019 153.304C19.3779 153.96 18.0499 154.288 16.4179 154.288Z" fill="white"/>
<path d="M34.1136 154V151.792H36.2736V141.592H33.5376V143.824H31.0176V139.384H44.3136V143.824H41.7936V141.592H39.0576V151.792H41.2176V154H34.1136Z" fill="white"/>
<path d="M53.3819 154V151.792H55.3499V141.592H53.3819V139.384H65.4299V143.68H62.8619V141.592H58.1339V145.552H63.6299V147.76H58.1339V151.792H62.9339V149.608H65.5259V154H53.3819Z" fill="white"/>
<path d="M75.1713 154V151.792H77.1393V141.592H75.1713V139.384H81.9873C84.0033 139.384 85.4993 139.848 86.4753 140.776C87.4673 141.704 87.9633 142.824 87.9633 144.136C87.9633 145.448 87.4673 146.568 86.4753 147.496C85.4993 148.424 84.0033 148.888 81.9873 148.888H79.9233V151.792H82.3713V154H75.1713ZM79.9233 141.592V146.68H82.0833C83.1553 146.68 83.9313 146.44 84.4113 145.96C84.9073 145.464 85.1553 144.856 85.1553 144.136C85.1553 143.416 84.9073 142.816 84.4113 142.336C83.9313 141.84 83.1553 141.592 82.0833 141.592H79.9233Z" fill="white"/>
<path d="M102.286 154.288C100.878 154.288 99.1504 154.024 97.1024 153.496V149.848H99.5984V151.768C100.51 151.976 101.35 152.08 102.118 152.08C104.134 152.08 105.142 151.472 105.142 150.256C105.142 149.648 104.87 149.16 104.326 148.792C103.798 148.424 103.15 148.136 102.382 147.928C101.614 147.704 100.838 147.448 100.054 147.16C99.2864 146.872 98.6304 146.416 98.0864 145.792C97.5584 145.152 97.2944 144.336 97.2944 143.344C97.2944 141.904 97.8064 140.84 98.8304 140.152C99.8704 139.448 101.182 139.096 102.766 139.096C104.318 139.096 105.87 139.36 107.422 139.888V143.464H104.878V141.496C104.03 141.368 103.35 141.304 102.838 141.304C102.022 141.304 101.342 141.44 100.798 141.712C100.254 141.984 99.9824 142.432 99.9824 143.056C99.9824 143.472 100.126 143.832 100.414 144.136C100.702 144.424 101.078 144.664 101.542 144.856C102.006 145.032 102.51 145.208 103.054 145.384C103.614 145.544 104.174 145.736 104.734 145.96C105.294 146.184 105.806 146.456 106.27 146.776C106.734 147.096 107.11 147.536 107.398 148.096C107.686 148.656 107.83 149.312 107.83 150.064C107.83 151.552 107.31 152.632 106.27 153.304C105.246 153.96 103.918 154.288 102.286 154.288Z" fill="white"/>
<defs>
<filter id="filter0_d" x="6.375" y="9.375" width="87" height="107.25" filterUnits="userSpaceOnUse" color-interpolation-filters="sRGB">
<feFlood flood-opacity="0" result="BackgroundImageFix"/>
<feColorMatrix in="SourceAlpha" type="matrix" values="0 0 0 0 0 0 0 0 0 0 0 0 0 0 0 0 0 0 127 0"/>
<feOffset dy="3"/>
<feGaussianBlur stdDeviation="1.5"/>
<feColorMatrix type="matrix" values="0 0 0 0 0 0 0 0 0 0 0 0 0 0 0 0 0 0 0.25 0"/>
<feBlend mode="normal" in2="BackgroundImageFix" result="effect1_dropShadow"/>
<feBlend mode="normal" in="SourceGraphic" in2="effect1_dropShadow" result="shape"/>
</filter>
</defs>
</svg>
