<svg width="120" height="120" viewBox="0 0 120 120" fill="none" xmlns="http://www.w3.org/2000/svg">
<path fill-rule="evenodd" clip-rule="evenodd" d="M60 110.625C87.9594 110.625 110.625 87.9594 110.625 60C110.625 32.0406 87.9594 9.375 60 9.375C32.0406 9.375 9.375 32.0406 9.375 60C9.375 87.9594 32.0406 110.625 60 110.625ZM29.6199 34.6875C32.4159 34.6875 34.6824 32.421 34.6824 29.625C34.6824 26.829 32.4159 24.5625 29.6199 24.5625C26.8241 24.5625 24.5574 26.829 24.5574 29.625C24.5574 32.421 26.8241 34.6875 29.6199 34.6875ZM49.8699 34.6875C52.6659 34.6875 54.9324 32.421 54.9324 29.625C54.9324 26.829 52.6659 24.5625 49.8699 24.5625C47.0741 24.5625 44.8074 26.829 44.8074 29.625C44.8074 32.421 47.0741 34.6875 49.8699 34.6875ZM70.1199 34.6875C72.9159 34.6875 75.1824 32.421 75.1824 29.625C75.1824 26.829 72.9159 24.5625 70.1199 24.5625C67.3241 24.5625 65.0574 26.829 65.0574 29.625C65.0574 32.421 67.3241 34.6875 70.1199 34.6875ZM50.3813 70.125C50.3813 71.8026 49.0213 73.1625 47.3438 73.1625C45.6662 73.1625 44.3062 71.8026 44.3062 70.125C44.3062 68.4474 45.6662 67.0875 47.3438 67.0875C49.0213 67.0875 50.3813 68.4474 50.3813 70.125ZM62.5312 70.125C62.5312 71.8026 61.1713 73.1625 59.4937 73.1625C57.8162 73.1625 56.4563 71.8026 56.4563 70.125C56.4563 68.4474 57.8162 67.0875 59.4937 67.0875C61.1713 67.0875 62.5312 68.4474 62.5312 70.125ZM74.6813 70.125C74.6813 71.8026 73.3213 73.1625 71.6437 73.1625C69.9662 73.1625 68.6063 71.8026 68.6063 70.125C68.6063 68.4474 69.9662 67.0875 71.6437 67.0875C73.3213 67.0875 74.6813 68.4474 74.6813 70.125Z" fill="white" fill-opacity="0.35"/>
<g filter="url(#filter0_d)">
<path fill-rule="evenodd" clip-rule="evenodd" d="M9.375 15.45V110.625L29.625 49.875H84.3C87.6551 49.875 90.375 47.1551 90.375 43.8V15.45C90.375 12.0949 87.6551 9.375 84.3 9.375H15.45C12.0949 9.375 9.375 12.0949 9.375 15.45ZM29.6199 34.6875C32.4159 34.6875 34.6824 32.421 34.6824 29.625C34.6824 26.829 32.4159 24.5625 29.6199 24.5625C26.8241 24.5625 24.5574 26.829 24.5574 29.625C24.5574 32.421 26.8241 34.6875 29.6199 34.6875ZM49.8699 34.6875C52.6659 34.6875 54.9324 32.421 54.9324 29.625C54.9324 26.829 52.6659 24.5625 49.8699 24.5625C47.0741 24.5625 44.8074 26.829 44.8074 29.625C44.8074 32.421 47.0741 34.6875 49.8699 34.6875ZM70.1199 34.6875C72.9159 34.6875 75.1824 32.421 75.1824 29.625C75.1824 26.829 72.9159 24.5625 70.1199 24.5625C67.3241 24.5625 65.0574 26.829 65.0574 29.625C65.0574 32.421 67.3241 34.6875 70.1199 34.6875Z" fill="white"/>
<path fill-rule="evenodd" clip-rule="evenodd" d="M38.5988 63.4674C39.2861 61.3973 41.2223 60 43.4034 60H74.175C77.5301 60 80.25 62.7199 80.25 66.075V74.0128C80.25 77.3522 77.5547 80.0655 74.2155 80.0878L49.875 80.25L22.9425 110.625L38.5988 63.4674ZM50.3813 70.125C50.3813 71.8026 49.0213 73.1625 47.3438 73.1625C45.6662 73.1625 44.3063 71.8026 44.3063 70.125C44.3063 68.4474 45.6662 67.0875 47.3438 67.0875C49.0213 67.0875 50.3813 68.4474 50.3813 70.125ZM62.5312 70.125C62.5312 71.8026 61.1713 73.1625 59.4938 73.1625C57.8162 73.1625 56.4563 71.8026 56.4563 70.125C56.4563 68.4474 57.8162 67.0875 59.4938 67.0875C61.1713 67.0875 62.5312 68.4474 62.5312 70.125ZM74.6813 70.125C74.6813 71.8026 73.3213 73.1625 71.6437 73.1625C69.9662 73.1625 68.6063 71.8026 68.6063 70.125C68.6063 68.4474 69.9662 67.0875 71.6437 67.0875C73.3213 67.0875 74.6813 68.4474 74.6813 70.125Z" fill="white"/>
</g>
<path d="M34.6824 29.6248C34.6824 32.4206 32.4159 34.6873 29.6199 34.6873C26.8241 34.6873 24.5574 32.4206 24.5574 29.6248C24.5574 26.8288 26.8241 24.5623 29.6199 24.5623C32.4159 24.5623 34.6824 26.8288 34.6824 29.6248Z" fill="white" fill-opacity="0.7"/>
<path d="M54.9324 29.6248C54.9324 32.4206 52.6659 34.6873 49.8699 34.6873C47.0741 34.6873 44.8074 32.4206 44.8074 29.6248C44.8074 26.8288 47.0741 24.5623 49.8699 24.5623C52.6659 24.5623 54.9324 26.8288 54.9324 29.6248Z" fill="white" fill-opacity="0.7"/>
<path d="M70.1199 34.6873C72.916 34.6873 75.1825 32.4206 75.1825 29.6248C75.1825 26.8288 72.916 24.5623 70.1199 24.5623C67.3241 24.5623 65.0574 26.8288 65.0574 29.6248C65.0574 32.4206 67.3241 34.6873 70.1199 34.6873Z" fill="white" fill-opacity="0.7"/>
<path d="M50.3813 70.1255C50.3813 71.8031 49.0213 73.163 47.3438 73.163C45.6662 73.163 44.3063 71.8031 44.3063 70.1255C44.3063 68.448 45.6662 67.088 47.3438 67.088C49.0213 67.088 50.3813 68.448 50.3813 70.1255Z" fill="white" fill-opacity="0.7"/>
<path d="M62.5312 70.1255C62.5312 71.8031 61.1713 73.163 59.4937 73.163C57.8162 73.163 56.4562 71.8031 56.4562 70.1255C56.4562 68.448 57.8162 67.088 59.4937 67.088C61.1713 67.088 62.5312 68.448 62.5312 70.1255Z" fill="white" fill-opacity="0.7"/>
<path d="M71.6437 73.163C73.3213 73.163 74.6812 71.8031 74.6812 70.1255C74.6812 68.448 73.3213 67.088 71.6437 67.088C69.9662 67.088 68.6063 68.448 68.6063 70.1255C68.6063 71.8031 69.9662 73.163 71.6437 73.163Z" fill="white" fill-opacity="0.7"/>
<defs>
<filter id="filter0_d" x="6.375" y="9.375" width="87" height="107.25" filterUnits="userSpaceOnUse" color-interpolation-filters="sRGB">
<feFlood flood-opacity="0" result="BackgroundImageFix"/>
<feColorMatrix in="SourceAlpha" type="matrix" values="0 0 0 0 0 0 0 0 0 0 0 0 0 0 0 0 0 0 127 0"/>
<feOffset dy="3"/>
<feGaussianBlur stdDeviation="1.5"/>
<feColorMatrix type="matrix" values="0 0 0 0 0 0 0 0 0 0 0 0 0 0 0 0 0 0 0.25 0"/>
<feBlend mode="normal" in2="BackgroundImageFix" result="effect1_dropShadow"/>
<feBlend mode="normal" in="SourceGraphic" in2="effect1_dropShadow" result="shape"/>
</filter>
</defs>
</svg>
