<svg width="414" height="262" viewBox="0 0 414 262" fill="none" xmlns="http://www.w3.org/2000/svg">
<path d="M7.91558 10.0065C5.03252 5.9427 0 0 0 0H414V250.312C414 250.312 409.307 252.329 406.234 253.448C401.535 255.158 398.823 255.91 393.987 257.182L393.969 257.186C390.505 258.097 388.552 258.611 385.026 259.273C381.321 259.968 379.218 260.24 375.468 260.617C371.457 261.02 369.194 261.218 365.162 261.214C361.189 261.211 358.945 261.136 355.006 260.617C351.23 260.119 349.114 259.709 345.448 258.675C341.558 257.579 339.411 256.781 335.74 255.091C332.73 253.705 331.053 252.862 328.273 251.058C324.62 248.689 322.762 247.043 319.61 244.039C316.921 241.476 315.566 239.874 313.188 237.02C310.441 233.721 309.268 231.584 306.617 228.208C303.089 223.714 301.218 221.075 297.208 217.007C293.202 212.943 290.814 210.744 286.156 207.448C282.335 204.744 280.084 203.322 275.851 201.325C271.862 199.443 269.522 198.521 265.247 197.442C260.68 196.288 257.991 196.207 253.299 195.799C249.692 195.485 247.659 195.361 244.039 195.351C240.186 195.339 238.027 195.549 234.182 195.799C228.101 196.194 224.702 196.587 218.649 197.292C213.037 197.946 209.916 198.515 204.312 199.234C197.495 200.108 193.675 200.624 186.838 201.325C180.024 202.023 176.204 202.47 169.364 202.818C162.722 203.157 158.985 203.31 152.338 203.117C146.493 202.947 143.204 202.8 137.403 202.071C131.341 201.31 127.934 200.762 122.019 199.234C115.144 197.457 111.368 196.066 104.844 193.26C98.0144 190.321 94.28 188.376 87.9675 184.448C79.0424 178.894 74.4619 175.024 66.7597 167.87C61.7731 163.238 58.9906 160.577 54.6623 155.325C50.8335 150.678 48.8901 147.886 45.7013 142.779C42.8119 138.152 41.3086 135.466 38.9805 130.532C36.4661 125.204 35.2877 122.093 33.4545 116.494C31.6895 111.102 30.948 107.993 29.7208 102.455C28.4015 96.5004 27.861 93.1134 27.0325 87.0714C26.2519 81.3792 26.095 78.1536 25.539 72.4351C25.0514 67.4211 24.847 64.6034 24.3442 59.5909C23.7527 53.6948 23.7264 50.3428 22.7013 44.5065C22.2066 41.6899 21.8983 40.1128 21.2078 37.3377L21.1652 37.1663C20.3985 34.0845 19.9526 32.2922 18.8182 29.2727C17.0476 24.5601 15.5512 22.1088 12.9935 17.7727C11.1524 14.6516 10.0123 12.9619 7.91558 10.0065Z" fill="#FF7D65"/>
</svg>
